<svg width="71" height="71" viewBox="0 0 71 71" fill="none" xmlns="http://www.w3.org/2000/svg">
<circle cx="35.5" cy="35.5" r="35.5" fill="#633AB4"/>
<path d="M35.5 20.1875C38.5203 20.1875 40.9688 22.6359 40.9688 25.6562V26.75H30.0312V25.6562C30.0312 22.6359 32.4797 20.1875 35.5 20.1875ZM43.1562 26.75V25.6562C43.1562 21.4278 39.7284 18 35.5 18C31.2716 18 27.8438 21.4278 27.8438 25.6562V26.75H20.1875V48.625C20.1875 51.0412 22.1463 53 24.5625 53H46.4375C48.8537 53 50.8125 51.0412 50.8125 48.625V26.75H43.1562ZM22.375 28.9375H48.625V48.625C48.625 49.8331 47.6456 50.8125 46.4375 50.8125H24.5625C23.3544 50.8125 22.375 49.8331 22.375 48.625V28.9375Z" fill="white"/>
</svg>
