<svg width="71" height="71" viewBox="0 0 71 71" fill="none" xmlns="http://www.w3.org/2000/svg">
<circle cx="35.5" cy="35.5" r="35.5" fill="#633AB4"/>
<path d="M53 35.5C53 35.5 46.4375 23.4688 35.5 23.4688C24.5625 23.4688 18 35.5 18 35.5C18 35.5 24.5625 47.5312 35.5 47.5312C46.4375 47.5312 53 35.5 53 35.5ZM20.5653 35.5C20.6898 35.3101 20.8318 35.0992 20.9909 34.8709C21.7235 33.8198 22.8044 32.422 24.1952 31.0312C27.0148 28.2116 30.8639 25.6562 35.5 25.6562C40.1361 25.6562 43.9852 28.2116 46.8048 31.0312C48.1956 32.422 49.2765 33.8198 50.0091 34.8709C50.1682 35.0992 50.3102 35.3101 50.4347 35.5C50.3102 35.6899 50.1682 35.9008 50.0091 36.1291C49.2765 37.1802 48.1956 38.578 46.8048 39.9688C43.9852 42.7884 40.1361 45.3438 35.5 45.3438C30.8639 45.3438 27.0148 42.7884 24.1952 39.9688C22.8044 38.578 21.7235 37.1802 20.9909 36.1291C20.8318 35.9008 20.6898 35.6899 20.5653 35.5Z" fill="white"/>
<path d="M35.5 30.0312C32.4797 30.0312 30.0312 32.4797 30.0312 35.5C30.0312 38.5203 32.4797 40.9688 35.5 40.9688C38.5203 40.9688 40.9688 38.5203 40.9688 35.5C40.9688 32.4797 38.5203 30.0312 35.5 30.0312ZM27.8438 35.5C27.8438 31.2716 31.2716 27.8438 35.5 27.8438C39.7284 27.8438 43.1562 31.2716 43.1562 35.5C43.1562 39.7284 39.7284 43.1562 35.5 43.1562C31.2716 43.1562 27.8438 39.7284 27.8438 35.5Z" fill="white"/>
</svg>
