<svg width="71" height="71" viewBox="0 0 71 71" fill="none" xmlns="http://www.w3.org/2000/svg">
<circle cx="35.5" cy="35.5" r="35.5" fill="#633AB4"/>
<path d="M50.328 18.1854C50.6308 18.3885 50.8125 18.7291 50.8125 19.0938V35.5C50.8125 35.9472 50.5402 36.3494 50.125 36.5155L49.7188 35.5C50.125 36.5155 50.1251 36.5155 50.125 36.5155L50.1193 36.5178L50.1058 36.5231L50.0558 36.5428C50.0126 36.5598 49.9497 36.5843 49.8691 36.6152C49.7078 36.677 49.4754 36.7648 49.1868 36.8697C48.6102 37.0793 47.8062 37.359 46.8959 37.6391C45.1123 38.1879 42.7876 38.7812 40.9688 38.7812C39.1165 38.7812 37.5817 38.1671 36.2485 37.6337L36.1875 37.6093C34.8006 37.0545 33.6195 36.5938 32.2188 36.5938C30.6872 36.5938 28.6347 37.0953 26.8868 37.6383C26.0297 37.9045 25.2753 38.1712 24.7355 38.3713C24.675 38.3937 24.6173 38.4152 24.5625 38.4359V51.9062C24.5625 52.5103 24.0728 53 23.4688 53C22.8647 53 22.375 52.5103 22.375 51.9062V19.0938C22.375 18.4897 22.8647 18 23.4688 18C24.0728 18 24.5625 18.4897 24.5625 19.0938V19.7112C25.0571 19.5381 25.6478 19.3402 26.2916 19.1421C28.0752 18.5933 30.3999 18 32.2188 18C34.0579 18 35.5523 18.6058 36.8584 19.1352C36.8902 19.1481 36.9218 19.161 36.9534 19.1737C38.3128 19.7243 39.4983 20.1875 40.9688 20.1875C42.5003 20.1875 44.5528 19.686 46.3007 19.143C47.1578 18.8767 47.9122 18.61 48.452 18.41C48.7216 18.3101 48.9368 18.2271 49.0835 18.1695C49.1569 18.1407 49.2131 18.1183 49.2504 18.1034L49.2919 18.0866L49.3016 18.0827L49.3037 18.0818M48.625 20.6741C48.1446 20.8445 47.5736 21.0382 46.9496 21.232C45.1768 21.7828 42.8543 22.375 40.9688 22.375C39.0301 22.375 37.486 21.7496 36.1487 21.2079L36.1322 21.2013C34.7604 20.6456 33.6161 20.1875 32.2188 20.1875C30.7564 20.1875 28.706 20.6879 26.9349 21.2329C26.068 21.4996 25.2997 21.7668 24.7483 21.9674C24.6832 21.991 24.6212 22.0137 24.5625 22.0354V36.1072C25.0429 35.9367 25.6139 35.7431 26.2379 35.5492C28.0107 34.9985 30.3332 34.4062 32.2188 34.4062C34.071 34.4062 35.6058 35.0204 36.939 35.5538L37 35.5782C38.3869 36.133 39.568 36.5938 40.9688 36.5938C42.4311 36.5938 44.4815 36.0933 46.2526 35.5484C47.1195 35.2816 47.8878 35.0144 48.4392 34.8139C48.5043 34.7902 48.5663 34.7675 48.625 34.7459V20.6741Z" fill="white"/>
</svg>
