<svg width="20" height="20" viewBox="0 0 20 20" fill="none" xmlns="http://www.w3.org/2000/svg">
<path d="M10.4419 1.43306C10.1979 1.18898 9.80214 1.18898 9.55806 1.43306L2.05806 8.93306C1.94085 9.05027 1.875 9.20924 1.875 9.375V18.125C1.875 18.4702 2.15482 18.75 2.5 18.75H8.125C8.47018 18.75 8.75 18.4702 8.75 18.125V13.125H11.25V18.125C11.25 18.4702 11.5298 18.75 11.875 18.75H17.5C17.8452 18.75 18.125 18.4702 18.125 18.125V9.375C18.125 9.20924 18.0592 9.05027 17.9419 8.93306L16.25 7.24112V3.125C16.25 2.77982 15.9702 2.5 15.625 2.5H14.375C14.0298 2.5 13.75 2.77982 13.75 3.125V4.74112L10.4419 1.43306ZM3.125 17.5V9.63388L10 2.75888L16.875 9.63388V17.5H12.5V12.5C12.5 12.1548 12.2202 11.875 11.875 11.875H8.125C7.77982 11.875 7.5 12.1548 7.5 12.5V17.5H3.125Z" fill="white"/>
</svg>
