<svg width="156" height="60" viewBox="0 0 156 60" fill="none" xmlns="http://www.w3.org/2000/svg">
<path d="M3.8722 46.7241C4.54952 48.1692 5.31716 48.8435 6.40088 48.8435C7.75553 48.8435 8.61349 47.7838 8.61349 46.1461L8.65864 44.8938V31.0215H12.542V46.4833C12.542 50.433 10.2391 52.8896 6.67181 52.8896C3.73673 52.8896 1.38867 51.3001 0.350098 48.5063L3.8722 46.7241Z" fill="black"/>
<path d="M30.1975 52.4072H26.7657V51.1066C25.5465 52.2145 23.9209 52.8888 22.205 52.8888C18.1862 52.8888 14.9351 49.3726 14.9351 44.9893C14.9351 40.6061 18.1862 37.0898 22.205 37.0898C23.9209 37.0898 25.5465 37.716 26.7657 38.8721V37.5715H30.1975V52.4072ZM22.6566 49.2763C24.824 49.2763 26.5399 47.3977 26.5399 44.9412C26.5399 42.4846 24.824 40.6061 22.6566 40.6061C20.444 40.6061 18.7281 42.4846 18.7281 44.9412C18.7281 47.3977 20.444 49.2763 22.6566 49.2763Z" fill="black"/>
<path d="M31.9136 37.3791H34.1713V33.1885H37.6031V37.3791H40.493V40.1728H37.6031V48.0723C37.6031 49.3246 37.9192 49.8545 39.1384 49.8545C39.4093 49.8545 39.8157 49.8545 40.1318 49.7582V52.311C39.4093 52.6 38.4159 52.6 37.6934 52.6C35.1196 52.6 34.1713 51.155 34.1713 48.554V40.1246H31.9136V37.3791Z" fill="black"/>
<path d="M57.2908 52.4072H53.859V51.1066C52.6398 52.2145 51.0142 52.8888 49.2983 52.8888C45.2795 52.8888 42.0283 49.3726 42.0283 44.9893C42.0283 40.6061 45.2795 37.0898 49.2983 37.0898C51.0142 37.0898 52.6398 37.716 53.859 38.8721V37.5715H57.2908V52.4072ZM49.7498 49.2763C51.9173 49.2763 53.6332 47.3977 53.6332 44.9412C53.6332 42.4846 51.9173 40.6061 49.7498 40.6061C47.5372 40.6061 45.8213 42.4846 45.8213 44.9412C45.8213 47.3977 47.5824 49.2763 49.7498 49.2763Z" fill="black"/>
<path d="M67.9473 52.8888C66.2766 52.8888 64.7864 52.3108 63.5672 51.2993V58.9098H59.9548V37.5233H63.3415V38.9202C64.6058 37.7642 66.1862 37.0898 67.9473 37.0898C72.0113 37.0898 75.2624 40.6061 75.2624 44.9893C75.2624 49.3726 72.0113 52.8888 67.9473 52.8888ZM67.4957 40.6061C65.3735 40.6061 63.6124 42.4846 63.6124 44.9412C63.6124 47.3977 65.3735 49.2763 67.4957 49.2763C69.7083 49.2763 71.4694 47.3977 71.4694 44.9412C71.4694 42.4846 69.6632 40.6061 67.4957 40.6061Z" fill="black"/>
<path d="M92.1506 52.4072H88.7188V51.1066C87.4996 52.2145 85.8741 52.8888 84.1582 52.8888C80.0942 52.8888 76.8882 49.3726 76.8882 44.9893C76.8882 40.6061 80.1394 37.0898 84.1582 37.0898C85.8741 37.0898 87.4996 37.716 88.7188 38.8721V37.5715H92.1506V52.4072ZM84.6097 49.2763C86.7772 49.2763 88.4931 47.3977 88.4931 44.9412C88.4931 42.4846 86.7772 40.6061 84.6097 40.6061C82.3971 40.6061 80.6812 42.4846 80.6812 44.9412C80.6812 47.3977 82.4423 49.2763 84.6097 49.2763Z" fill="black"/>
<path d="M94.8145 37.4752H98.2011V38.7275C99.0139 37.6197 100.188 36.9453 101.543 36.9453C102.13 36.9453 102.762 37.0898 103.394 37.3788L101.904 41.0877C101.452 40.8951 101.181 40.7987 100.775 40.7987C99.2396 40.7987 98.4269 42.0029 98.4269 44.315V52.4553H94.8145V37.4752Z" fill="black"/>
<path d="M105.065 31.0215H108.677V43.0634L113.283 37.476H117.934L112.29 44.2194L118.205 52.4079H113.599L108.723 45.4236V52.4079H105.11V31.0215H105.065Z" fill="black"/>
<path d="M121.366 30.6836C122.675 30.6836 123.714 31.6951 123.714 33.0438C123.714 34.3443 122.675 35.404 121.366 35.404C120.056 35.404 119.063 34.3925 119.063 33.0438C119.063 31.6951 120.056 30.6836 121.366 30.6836ZM119.56 37.4752H123.172V52.4072H119.56V37.4752Z" fill="black"/>
<path d="M125.836 37.4748H129.223V38.5345C130.081 37.523 131.435 36.9932 133.016 36.9932C136.267 36.9932 138.57 39.4497 138.57 43.0141V52.455H134.958V43.6403C134.958 41.8581 133.874 40.5576 132.293 40.5576C130.713 40.5576 129.494 41.8581 129.494 43.4958V52.4068H125.881V37.4748H125.836Z" fill="black"/>
<path d="M156 51.5876C156 56.4526 152.929 59.439 147.962 59.439C145.388 59.439 142.995 58.6201 141.234 57.1751L142.95 53.8034C144.53 55.2484 146.156 55.8746 147.962 55.8746C150.897 55.8746 152.568 54.1887 152.568 51.2505V51.0578C151.349 52.1657 149.723 52.84 148.007 52.84C143.943 52.84 140.737 49.3238 140.737 44.9405C140.737 40.5573 143.988 37.041 148.007 37.041C149.723 37.041 151.349 37.6672 152.568 38.7751V37.4745H156V51.5876ZM148.459 49.2756C150.626 49.2756 152.342 47.3971 152.342 44.9405C152.342 42.484 150.626 40.6054 148.459 40.6054C146.246 40.6054 144.53 42.484 144.53 44.9405C144.53 47.3971 146.246 49.2756 148.459 49.2756Z" fill="black"/>
<path d="M5.80995 30.0164C5.80995 30.0164 0.547481 28.0346 0.0352056 21.751C-0.151076 19.4309 0.407771 17.0624 1.57203 15.0807C2.68973 13.0989 4.22655 9.71545 3.52799 6.86365C3.52799 6.86365 5.57709 6.86364 4.73882 11.8422C4.59911 12.7606 4.55254 13.679 4.64568 14.5973C4.83197 16.3374 5.48395 18.6575 7.43992 18.6092C7.43992 18.6092 6.32223 10.9722 9.34931 8.89373C9.34931 8.89373 10.0013 7.87869 14.5186 5.36525C16.8472 4.06019 17.3129 2.36844 16.9869 0C16.9869 0 20.5728 3.28682 19.4551 6.62197C18.3374 10.0055 14.3789 12.9056 15.0775 15.8057C15.5898 17.8358 16.428 18.8509 17.6389 18.7059C18.6168 18.6092 19.362 17.6908 19.4551 16.6758C19.5483 15.6607 19.688 14.1623 19.5948 12.7123C19.5948 12.7123 24.0656 19.7209 22.7616 23.6844C21.4576 27.6479 18.8963 30.3547 16.0089 30.9347C16.0089 30.9347 16.8472 29.0013 16.4746 27.9379C16.102 26.8746 14.8446 29.4847 14.8446 29.4847C14.8446 29.4847 14.3324 27.1646 14.8446 25.6662C15.3569 24.1678 14.8446 22.5727 14.1926 21.7993C13.7269 21.2193 13.6804 22.8144 13.7269 23.7327C13.7269 24.6511 13.4941 25.5212 12.9818 26.2462C12.9352 26.3429 12.8887 26.3912 12.7955 26.4879C12.7955 26.4879 11.2121 21.8477 9.95473 21.6543C9.06989 21.5093 9.76844 23.2011 10.2807 24.1678C10.6067 24.8928 10.793 25.6662 10.6533 26.4395C10.5601 27.1162 10.2341 27.7446 9.39588 27.7446C8.65075 27.7929 7.99876 27.3096 7.67277 26.6329C7.43992 26.1012 7.06736 25.3761 6.69479 24.8445C6.3688 24.3128 6.08937 24.8928 5.90309 25.6178C5.71681 26.4395 5.62366 27.3096 5.67023 28.1313C5.71681 28.6146 5.76338 29.388 5.80995 30.0164Z" fill="black"/>
</svg>
