<svg width="156" height="56" viewBox="0 0 156 56" fill="none" xmlns="http://www.w3.org/2000/svg">
<path d="M3.87232 43.8016C4.54965 45.1563 5.31728 45.7884 6.401 45.7884C7.75566 45.7884 8.61361 44.795 8.61361 43.2598L8.65876 42.0857V29.0811H12.5421V43.5758C12.5421 47.2786 10.2392 49.5815 6.67194 49.5815C3.73685 49.5815 1.38879 48.0914 0.35022 45.4724L3.87232 43.8016Z" fill="black"/>
<path d="M30.1977 49.1298H26.7659V47.9106C25.5468 48.9492 23.9212 49.5814 22.2053 49.5814C18.1865 49.5814 14.9353 46.2851 14.9353 42.1759C14.9353 38.0668 18.1865 34.7705 22.2053 34.7705C23.9212 34.7705 25.5468 35.3575 26.7659 36.4413V35.2221H30.1977V49.1298ZM22.6568 46.1948C24.8243 46.1948 26.5402 44.4337 26.5402 42.1308C26.5402 39.8279 24.8243 38.0668 22.6568 38.0668C20.4442 38.0668 18.7283 39.8279 18.7283 42.1308C18.7283 44.4337 20.4442 46.1948 22.6568 46.1948Z" fill="black"/>
<path d="M31.9136 35.0418H34.1713V31.1133H37.6031V35.0418H40.493V37.6608H37.6031V45.0662C37.6031 46.2403 37.9192 46.737 39.1384 46.737C39.4093 46.737 39.8157 46.737 40.1318 46.6467V49.0399C39.4093 49.3108 38.4159 49.3108 37.6934 49.3108C35.1196 49.3108 34.1713 47.9562 34.1713 45.5178V37.6156H31.9136V35.0418Z" fill="black"/>
<path d="M57.2909 49.1298H53.8591V47.9106C52.6399 48.9492 51.0143 49.5814 49.2984 49.5814C45.2796 49.5814 42.0284 46.2851 42.0284 42.1759C42.0284 38.0668 45.2796 34.7705 49.2984 34.7705C51.0143 34.7705 52.6399 35.3575 53.8591 36.4413V35.2221H57.2909V49.1298ZM49.75 46.1948C51.9174 46.1948 53.6333 44.4337 53.6333 42.1308C53.6333 39.8279 51.9174 38.0668 49.75 38.0668C47.5374 38.0668 45.8215 39.8279 45.8215 42.1308C45.8215 44.4337 47.5825 46.1948 49.75 46.1948Z" fill="black"/>
<path d="M67.9474 49.5814C66.2767 49.5814 64.7866 49.0395 63.5674 48.0913V55.2258H59.955V35.1769H63.3416V36.4864C64.6059 35.4027 66.1864 34.7705 67.9474 34.7705C72.0114 34.7705 75.2625 38.0668 75.2625 42.1759C75.2625 46.2851 72.0114 49.5814 67.9474 49.5814ZM67.4959 38.0668C65.3736 38.0668 63.6125 39.8279 63.6125 42.1308C63.6125 44.4337 65.3736 46.1948 67.4959 46.1948C69.7085 46.1948 71.4695 44.4337 71.4695 42.1308C71.4695 39.8279 69.6633 38.0668 67.4959 38.0668Z" fill="black"/>
<path d="M92.1506 49.1298H88.7188V47.9106C87.4996 48.9492 85.8741 49.5814 84.1582 49.5814C80.0942 49.5814 76.8882 46.2851 76.8882 42.1759C76.8882 38.0668 80.1394 34.7705 84.1582 34.7705C85.8741 34.7705 87.4996 35.3575 88.7188 36.4413V35.2221H92.1506V49.1298ZM84.6097 46.1948C86.7772 46.1948 88.4931 44.4337 88.4931 42.1308C88.4931 39.8279 86.7772 38.0668 84.6097 38.0668C82.3971 38.0668 80.6812 39.8279 80.6812 42.1308C80.6812 44.4337 82.4423 46.1948 84.6097 46.1948Z" fill="black"/>
<path d="M94.8147 35.1315H98.2013V36.3055C99.0141 35.2669 100.188 34.6348 101.543 34.6348C102.13 34.6348 102.762 34.7702 103.394 35.0412L101.904 38.5181C101.452 38.3375 101.182 38.2472 100.775 38.2472C99.2399 38.2472 98.4271 39.376 98.4271 41.5435V49.1747H94.8147V35.1315Z" fill="black"/>
<path d="M105.065 29.0811H108.677V40.3698L113.283 35.1319H117.934L112.29 41.4536L118.205 49.1299H113.599L108.723 42.5824V49.1299H105.11V29.0811H105.065Z" fill="black"/>
<path d="M121.366 28.7646C122.676 28.7646 123.714 29.7129 123.714 30.9772C123.714 32.1964 122.676 33.1898 121.366 33.1898C120.057 33.1898 119.063 32.2416 119.063 30.9772C119.063 29.7129 120.057 28.7646 121.366 28.7646ZM119.56 35.1315H123.172V49.1296H119.56V35.1315Z" fill="black"/>
<path d="M125.836 35.1312H129.223V36.1246C130.081 35.1764 131.436 34.6797 133.016 34.6797C136.267 34.6797 138.57 36.9826 138.57 40.3241V49.1745H134.958V40.9111C134.958 39.2403 133.874 38.0212 132.293 38.0212C130.713 38.0212 129.494 39.2404 129.494 40.7756V49.1293H125.881V35.1312H125.836Z" fill="black"/>
<path d="M156 48.3615C156 52.9221 152.929 55.7217 147.962 55.7217C145.388 55.7217 142.995 54.9541 141.234 53.5995L142.95 50.4386C144.53 51.7933 146.156 52.3803 147.962 52.3803C150.897 52.3803 152.568 50.7998 152.568 48.0454V47.8648C151.349 48.9033 149.723 49.5355 148.007 49.5355C143.943 49.5355 140.737 46.2392 140.737 42.1301C140.737 38.0209 143.989 34.7246 148.007 34.7246C149.723 34.7246 151.349 35.3116 152.568 36.3502V35.131H156V48.3615ZM148.459 46.194C150.626 46.194 152.342 44.433 152.342 42.1301C152.342 39.8271 150.626 38.0661 148.459 38.0661C146.246 38.0661 144.53 39.8271 144.53 42.1301C144.53 44.433 146.246 46.194 148.459 46.194Z" fill="black"/>
<path d="M5.80995 28.1391C5.80995 28.1391 0.547481 26.2812 0.0352056 20.3906C-0.151076 18.2156 0.407771 15.9953 1.57203 14.1375C2.68973 12.2797 4.22655 9.10782 3.52799 6.43438C3.52799 6.43438 5.57709 6.43437 4.73882 11.1016C4.59911 11.9625 4.55254 12.8234 4.64568 13.6844C4.83197 15.3156 5.48395 17.4906 7.43992 17.4453C7.43992 17.4453 6.32223 10.2859 9.34931 8.3375C9.34931 8.3375 10.0013 7.38594 14.5186 5.02969C16.8472 3.80625 17.3129 2.22031 16.9869 0C16.9869 0 20.5728 3.08126 19.4551 6.20782C18.3374 9.37969 14.3789 12.0984 15.0775 14.8172C15.5898 16.7203 16.428 17.6719 17.6389 17.5359C18.6168 17.4453 19.362 16.5844 19.4551 15.6328C19.5483 14.6812 19.688 13.2766 19.5948 11.9172C19.5948 11.9172 24.0656 18.4875 22.7616 22.2031C21.4576 25.9188 18.8963 28.4562 16.0089 29C16.0089 29 16.8472 27.1875 16.4746 26.1906C16.102 25.1938 14.8446 27.6406 14.8446 27.6406C14.8446 27.6406 14.3324 25.4656 14.8446 24.0609C15.3569 22.6563 14.8446 21.1609 14.1926 20.4359C13.7269 19.8922 13.6804 21.3875 13.7269 22.2484C13.7269 23.1094 13.4941 23.925 12.9818 24.6047C12.9352 24.6953 12.8887 24.7406 12.7955 24.8313C12.7955 24.8313 11.2121 20.4813 9.95473 20.3C9.06989 20.1641 9.76844 21.75 10.2807 22.6562C10.6067 23.3359 10.793 24.0609 10.6533 24.7859C10.5601 25.4203 10.2341 26.0094 9.39588 26.0094C8.65075 26.0547 7.99876 25.6016 7.67277 24.9672C7.43992 24.4688 7.06736 23.7891 6.69479 23.2906C6.3688 22.7922 6.08937 23.3359 5.90309 24.0156C5.7168 24.7859 5.62366 25.6016 5.67023 26.3719C5.7168 26.825 5.76338 27.55 5.80995 28.1391Z" fill="black"/>
</svg>
