<svg width="168" height="61" viewBox="0 0 168 61" fill="none" xmlns="http://www.w3.org/2000/svg">
<path d="M4.16927 47.1752C4.8987 48.6341 5.72538 49.3149 6.89247 49.3149C8.35134 49.3149 9.27529 48.2451 9.27529 46.5917L9.32391 45.3274V31.3223H13.506V39.1272V46.9321C13.506 50.9197 11.0259 53.3997 7.18425 53.3997C4.02338 53.3997 1.49468 51.795 0.376221 48.9745L4.16927 47.1752Z" fill="white"/>
<path d="M32.5197 52.9073H28.8239V51.5943C27.5109 52.7128 25.7603 53.3936 23.9124 53.3936C19.5844 53.3936 16.0831 49.8437 16.0831 45.4185C16.0831 40.9933 19.5844 37.4434 23.9124 37.4434C25.7603 37.4434 27.5109 38.0755 28.8239 39.2426V37.9296H32.5197V52.9073ZM24.3986 49.7464C26.7328 49.7464 28.5807 47.8499 28.5807 45.3699C28.5807 42.8898 26.7328 40.9933 24.3986 40.9933C22.0158 40.9933 20.1679 42.8898 20.1679 45.3699C20.1679 47.8499 22.0158 49.7464 24.3986 49.7464Z" fill="white"/>
<path d="M34.368 37.7366H36.7995V33.5059H40.4953V37.7366H43.6075V40.557H40.4953V48.5322C40.4953 49.7965 40.8357 50.3314 42.1486 50.3314C42.4404 50.3314 42.8781 50.3314 43.2185 50.2342V52.8115C42.4404 53.1033 41.3706 53.1033 40.5925 53.1033C37.8207 53.1033 36.7995 51.6444 36.7995 49.0185V40.5084H34.368V37.7366Z" fill="white"/>
<path d="M61.6971 52.9073H58.0014V51.5943C56.6884 52.7128 54.9377 53.3936 53.0898 53.3936C48.7619 53.3936 45.2606 49.8437 45.2606 45.4185C45.2606 40.9933 48.7619 37.4434 53.0898 37.4434C54.9377 37.4434 56.6884 38.0755 58.0014 39.2426V37.9296H61.6971V52.9073ZM53.5761 49.7464C55.9103 49.7464 57.7582 47.8499 57.7582 45.3699C57.7582 42.8898 55.9103 40.9933 53.5761 40.9933C51.1933 40.9933 49.3454 42.8898 49.3454 45.3699C49.3454 47.8499 51.242 49.7464 53.5761 49.7464Z" fill="white"/>
<path d="M73.1729 53.3936C71.3736 53.3936 69.7688 52.8101 68.4559 51.7888V59.4722H64.5656V37.881H68.2127V39.2913C69.5743 38.1242 71.2763 37.4434 73.1729 37.4434C77.5494 37.4434 81.0507 40.9933 81.0507 45.4185C81.0507 49.8437 77.5494 53.3936 73.1729 53.3936ZM72.6866 40.9933C70.401 40.9933 68.5045 42.8898 68.5045 45.3699C68.5045 47.8499 70.401 49.7464 72.6866 49.7464C75.0694 49.7464 76.9659 47.8499 76.9659 45.3699C76.9659 42.8898 75.0207 40.9933 72.6866 40.9933Z" fill="white"/>
<path d="M99.2397 52.9073H95.544V51.5943C94.231 52.7128 92.4804 53.3936 90.6325 53.3936C86.2559 53.3936 82.8032 49.8437 82.8032 45.4185C82.8032 40.9933 86.3045 37.4434 90.6325 37.4434C92.4804 37.4434 94.231 38.0755 95.544 39.2426V37.9296H99.2397V52.9073ZM91.1187 49.7464C93.4529 49.7464 95.3008 47.8499 95.3008 45.3699C95.3008 42.8898 93.4529 40.9933 91.1187 40.9933C88.7359 40.9933 86.888 42.8898 86.888 45.3699C86.888 47.8499 88.7846 49.7464 91.1187 49.7464Z" fill="white"/>
<path d="M102.108 37.8357H105.755V39.1C106.63 37.9816 107.895 37.3008 109.353 37.3008C109.986 37.3008 110.666 37.4467 111.347 37.7384L109.742 41.4829C109.256 41.2883 108.964 41.1911 108.527 41.1911C106.873 41.1911 105.998 42.4068 105.998 44.741V52.9592H102.108V37.8357Z" fill="white"/>
<path d="M113.146 31.3223H117.036V43.4795L121.996 37.8385H127.005L120.927 44.6466L127.297 52.9135H122.337L117.085 45.8623V52.9135H113.195V31.3223H113.146Z" fill="white"/>
<path d="M130.702 30.9785C132.112 30.9785 133.231 31.9997 133.231 33.3613C133.231 34.6743 132.112 35.7441 130.702 35.7441C129.292 35.7441 128.222 34.7229 128.222 33.3613C128.222 31.9997 129.292 30.9785 130.702 30.9785ZM128.757 37.8352H132.647V52.9101H128.757V37.8352Z" fill="white"/>
<path d="M135.516 37.8427H139.164V38.9126C140.087 37.8914 141.546 37.3564 143.248 37.3564C146.75 37.3564 149.23 39.8365 149.23 43.435V52.9663H145.339V44.0672C145.339 42.2679 144.172 40.955 142.47 40.955C140.768 40.955 139.455 42.268 139.455 43.9213V52.9176H135.565V37.8427H135.516Z" fill="white"/>
<path d="M168 52.0843C168 56.9958 164.693 60.0108 159.344 60.0108C156.572 60.0108 153.995 59.1841 152.098 57.7253L153.946 54.3213C155.648 55.7801 157.399 56.4123 159.344 56.4123C162.505 56.4123 164.304 54.7103 164.304 51.7439V51.5494C162.991 52.6679 161.241 53.3487 159.393 53.3487C155.016 53.3487 151.563 49.7988 151.563 45.3736C151.563 40.9483 155.065 37.3984 159.393 37.3984C161.241 37.3984 162.991 38.0306 164.304 39.1491V37.8361H168V52.0843ZM159.879 49.7502C162.213 49.7502 164.061 47.8536 164.061 45.3736C164.061 42.8935 162.213 40.997 159.879 40.997C157.496 40.997 155.648 42.8935 155.648 45.3736C155.648 47.8536 157.496 49.7502 159.879 49.7502Z" fill="white"/>
<path d="M6.06673 30.1985C6.06673 30.1985 0.571678 28.2047 0.0367616 21.8829C-0.157753 19.5488 0.425793 17.166 1.64151 15.1722C2.8086 13.1784 4.41335 9.77439 3.68392 6.90529C3.68392 6.90529 5.82358 6.90528 4.94826 11.914C4.80238 12.838 4.75375 13.7619 4.85101 14.6859C5.04552 16.4365 5.72632 18.7707 7.76873 18.7221C7.76873 18.7221 6.60164 11.0387 9.76251 8.94769C9.76251 8.94769 10.4433 7.92649 15.1603 5.3978C17.5917 4.08482 18.078 2.38281 17.7376 0C17.7376 0 21.482 3.30676 20.315 6.66215C19.1479 10.0662 15.0144 12.9839 15.7439 15.9016C16.2788 17.944 17.1541 18.9652 18.4184 18.8193C19.4396 18.7221 20.2177 17.7981 20.315 16.7769C20.4122 15.7557 20.5581 14.2482 20.4608 12.7894C20.4608 12.7894 25.1292 19.8405 23.7676 23.8281C22.406 27.8157 19.7314 30.5389 16.7164 31.1224C16.7164 31.1224 17.5917 29.1773 17.2027 28.1074C16.8137 27.0376 15.5007 29.6635 15.5007 29.6635C15.5007 29.6635 14.9658 27.3294 15.5007 25.8219C16.0356 24.3144 15.5007 22.7096 14.8199 21.9316C14.3336 21.348 14.285 22.9528 14.3336 23.8767C14.3336 24.8007 14.0905 25.676 13.5556 26.4054C13.5069 26.5027 13.4583 26.5513 13.361 26.6486C13.361 26.6486 11.7077 21.9802 10.3947 21.7857C9.47074 21.6398 10.2002 23.3418 10.7351 24.3144C11.0755 25.0438 11.27 25.8219 11.1241 26.5999C11.0269 27.2807 10.6865 27.9129 9.81114 27.9129C9.03308 27.9615 8.35228 27.4753 8.01188 26.7945C7.76873 26.2595 7.37971 25.5301 6.99068 24.9952C6.65028 24.4603 6.3585 25.0438 6.16398 25.7732C5.96947 26.5999 5.87221 27.4753 5.92084 28.3019C5.96947 28.7882 6.0181 29.5663 6.06673 30.1985Z" fill="white"/>
</svg>
