<svg width="82" height="77" viewBox="0 0 82 77" fill="none" xmlns="http://www.w3.org/2000/svg">
<path fill-rule="evenodd" clip-rule="evenodd" d="M43.1033 77C64.3662 77 81.6033 59.763 81.6033 38.5C81.6033 17.237 64.3662 0 43.1033 0C27.3482 0 13.8035 9.46356 7.84348 23.0163H23.0163V53.5652H7.66242C13.5258 67.3412 27.1866 77 43.1033 77Z" fill="#FF8C39"/>
<circle cx="42.5527" cy="38.5002" r="30.3947" fill="#5E3AA4"/>
<path d="M38.198 43.97C39.862 42.5313 41.1707 41.3527 42.124 40.434C43.0947 39.498 43.9007 38.5273 44.542 37.522C45.1833 36.5167 45.504 35.5113 45.504 34.506C45.504 33.466 45.2527 32.6513 44.75 32.062C44.2647 31.4727 43.4933 31.178 42.436 31.178C41.4133 31.178 40.616 31.5073 40.044 32.166C39.4893 32.8073 39.1947 33.674 39.16 34.766H36.3C36.352 32.79 36.9413 31.282 38.068 30.242C39.212 29.1847 40.6593 28.656 42.41 28.656C44.2993 28.656 45.7727 29.176 46.83 30.216C47.9047 31.256 48.442 32.6427 48.442 34.376C48.442 35.624 48.1213 36.8287 47.48 37.99C46.856 39.134 46.102 40.1653 45.218 41.084C44.3513 41.9853 43.242 43.034 41.89 44.23L40.72 45.27H48.962V47.74H36.326V45.582L38.198 43.97Z" fill="white"/>
</svg>
