<svg width="82" height="77" viewBox="0 0 82 77" fill="none" xmlns="http://www.w3.org/2000/svg">
<path fill-rule="evenodd" clip-rule="evenodd" d="M43.1033 77C64.3662 77 81.6033 59.763 81.6033 38.5C81.6033 17.237 64.3662 0 43.1033 0C27.3482 0 13.8035 9.46356 7.84348 23.0163H23.0163V53.5652H7.66242C13.5258 67.3412 27.1866 77 43.1033 77Z" fill="#FF8C39"/>
<circle cx="42.5527" cy="38.5002" r="30.3947" fill="#5E3AA4"/>
<path d="M36.508 33.726C36.612 32.114 37.2273 30.8573 38.354 29.956C39.498 29.0547 40.954 28.604 42.722 28.604C43.9353 28.604 44.984 28.8207 45.868 29.254C46.752 29.6873 47.4193 30.2767 47.87 31.022C48.3207 31.7673 48.546 32.608 48.546 33.544C48.546 34.6187 48.26 35.5373 47.688 36.3C47.116 37.0627 46.4313 37.574 45.634 37.834V37.938C46.6567 38.25 47.454 38.822 48.026 39.654C48.598 40.4687 48.884 41.5173 48.884 42.8C48.884 43.8227 48.65 44.7327 48.182 45.53C47.714 46.3273 47.0207 46.96 46.102 47.428C45.1833 47.8787 44.0827 48.104 42.8 48.104C40.928 48.104 39.3853 47.6273 38.172 46.674C36.976 45.7033 36.3347 44.3167 36.248 42.514H39.108C39.1773 43.4327 39.5327 44.1867 40.174 44.776C40.8153 45.348 41.682 45.634 42.774 45.634C43.8313 45.634 44.646 45.348 45.218 44.776C45.79 44.1867 46.076 43.4327 46.076 42.514C46.076 41.3007 45.686 40.4427 44.906 39.94C44.1433 39.42 42.9647 39.16 41.37 39.16H40.694V36.716H41.396C42.8 36.6987 43.866 36.4647 44.594 36.014C45.3393 35.5633 45.712 34.8527 45.712 33.882C45.712 33.05 45.4433 32.3913 44.906 31.906C44.3687 31.4033 43.606 31.152 42.618 31.152C41.6473 31.152 40.8933 31.4033 40.356 31.906C39.8187 32.3913 39.498 32.998 39.394 33.726H36.508Z" fill="white"/>
</svg>
