<svg width="38" height="38" viewBox="0 0 38 38" fill="none" xmlns="http://www.w3.org/2000/svg">
<path d="M29.3221 3.15516C29.9168 2.39042 31.0473 2.32004 31.7324 3.0051L34.1879 5.46067C35.3362 6.60893 35.7583 8.23568 35.2566 9.66261C33.242 15.3929 29.9436 20.7734 25.3585 25.3585C20.7734 29.9436 15.3929 33.242 9.66261 35.2566C8.23568 35.7583 6.60893 35.3362 5.46067 34.1879L3.0051 31.7324C2.32004 31.0473 2.39042 29.9168 3.15516 29.3221L8.63236 25.062C9.02304 24.7582 9.53172 24.6508 10.0119 24.7708L15.2109 26.0706C16.6231 26.4236 18.1169 26.0098 19.1462 24.9806L24.9806 19.1462C26.0098 18.1169 26.4236 16.6231 26.0706 15.2109L24.7708 10.0119C24.6508 9.53172 24.7581 9.02304 25.062 8.63237L29.3221 3.15516ZM33.5237 1.21381C31.7611 -0.548717 28.8527 -0.367643 27.3224 1.59988L23.0624 7.07709C22.2806 8.08221 22.0043 9.39095 22.3132 10.6263L23.6129 15.8253C23.7501 16.3742 23.5893 16.9548 23.1893 17.3549L17.3549 23.1893C16.9548 23.5893 16.3742 23.7501 15.8253 23.6129L10.6263 22.3132C9.39095 22.0043 8.08221 22.2806 7.07708 23.0624L1.59988 27.3224C-0.367643 28.8527 -0.548716 31.7611 1.21381 33.5237L3.66937 35.9792C5.42621 37.7361 8.05392 38.5075 10.5028 37.6465C16.5833 35.5087 22.2908 32.0088 27.1498 27.1498C32.0088 22.2908 35.5087 16.5833 37.6465 10.5028C38.5075 8.05392 37.7361 5.42621 35.9792 3.66937L33.5237 1.21381Z" fill="#FF8C39"/>
</svg>
